# xmcd
#
# Track frame offsets:
# 150
# 14405
# 18320
# 23572
# 28034
# 42246
# 54420
# 88979
# 110670
# 152447
# 187146
# 222944
# 243229
#
# Disc length: 3635 seconds
#
# Revision: 0
# Processed by: cddbd v1.4PL0 Copyright (c) Steve Scherf et al.
# Submitted via: Audion 3.0.2 (http://www.panic.com/audion/)
#
DISCID=a50e310d
DTITLE=Frederick Moore - Unreleased 80's Tracks
DYEAR=1900
DGENRE=
TTITLE0=Dogs Waiting for the Moon (1980)
TTITLE1=WYG (1980)
TTITLE2=Coffee Cup/Ash Tray (1981)
TTITLE3=Sextet (1981)
TTITLE4=In All That I Dream (1981)
TTITLE5=Message In A Bottle (1982)
TTITLE6=Benign Fixations (1983)
TTITLE7=And The Morning Turned To Shine (1984)
TTITLE8=Hexagon Lake-Flawed (1985)
TTITLE9=Mainstreams  (1987)
TTITLE10=Ba-Da-Bah (1987-88)
TTITLE11=Flagg Falling (1988)
TTITLE12=The Emerging City  (1988-89)
EXTD=
EXTT0=
EXTT1=
EXTT2=
EXTT3=
EXTT4=
EXTT5=
EXTT6=
EXTT7=
EXTT8=
EXTT9=
EXTT10=
EXTT11=
EXTT12=
PLAYORDER=
